<?xml version="1.0" standalone="no"?>
<!DOCTYPE svg PUBLIC "-//W3C//DTD SVG 1.1//EN" 
    "http://www.w3.org/Graphics/SVG/1.1/DTD/svg11.dtd">
<svg width="210mm" height="297mm"
    xmlns="http://www.w3.org/2000/svg" version="1.1" viewBox="0 0 744.09449 1052.3622">
  <g fill="none" stroke="black" stroke-width="0.3mm">
    <path d="M655.51181 526.1811 L655.46869 531.28036 L655.12618 541.38711 L654.44738 551.36838 L653.43876 561.22041 L652.10683 570.93947 L650.45807 580.5218 L648.49897 589.96366 L646.23601 599.26131 L643.67569 608.411 L640.82449 617.40898 L637.6889 626.25151 L634.27541 634.93484 L630.5905 643.45523 L626.64067 651.80892 L622.43239 659.99219 L617.97217 668.00126 L613.26649 675.83242 L608.32183 683.48189 L603.14468 690.94595 L597.74154 698.22085 L592.11889 705.30283 L586.28321 712.18816 L580.241 718.87308 L573.99874 725.35385 L567.56293 731.62674 L560.94004 737.68798 L554.13658 743.53383 L547.15901 749.16055 L540.01385 754.5644 L532.70756 759.74162 L525.24664 764.68848 L517.63758 769.40121 L509.88687 773.87609 L502.00099 778.10936 L493.98643 782.09728 L485.84968 785.8361 L477.59723 789.32207 L469.23556 792.55145 L460.77117 795.5205 L452.21054 798.22547 L443.56016 800.66261 L434.82651 802.82817 L426.01609 804.71842 L417.13539 806.3296 L408.19088 807.65797 L399.18907 808.69978 L390.13643 809.45129 L381.03946 809.90875 L371.90464 810.06842 L362.73847 809.92654 L353.54742 809.47938 L344.33799 808.72319 L335.11666 807.65422 L325.88993 806.26873 L316.66428 804.56297 L307.4462 802.53319 L298.24218 800.17565 L289.0587 797.4866 L279.90226 794.4623 L270.77933 791.099 L261.69642 787.39296 L252.66 783.34043 L243.67657 778.93766 L234.75261 774.18091 L230.31496 771.66862 L230.31496 771.66862 L226.22857 769.26373 L218.20563 764.26848 L210.38561 759.03128 L202.77223 753.55861 L195.36921 747.8569 L188.18028 741.93261 L181.20917 735.79221 L174.4596 729.44214 L167.93531 722.88886 L161.64001 716.13882 L155.57743 709.19848 L149.75131 702.07429 L144.16536 694.77271 L138.82331 687.30019 L133.7289 679.66318 L128.88583 671.86815 L124.29786 663.92154 L119.96869 655.82981 L115.90206 647.59941 L112.10169 639.2368 L108.57131 630.74844 L105.31464 622.14077 L102.33542 613.42026 L99.63736 604.59335 L97.2242 595.6665 L95.09966 586.64617 L93.26747 577.53881 L91.73136 568.35087 L90.49504 559.08881 L89.56226 549.75909 L88.93672 540.36816 L88.62217 530.92246 L88.58268 526.1811 L88.58268 526.1811 L88.6258 521.08184 L88.96831 510.97509 L89.64711 500.99383 L90.65572 491.14179 L91.98765 481.42274 L93.63642 471.8404 L95.59552 462.39854 L97.85847 453.10089 L100.4188 443.9512 L103.27 434.95322 L106.40559 426.11069 L109.81908 417.42736 L113.50399 408.90698 L117.45382 400.55328 L121.66209 392.37002 L126.12232 384.36094 L130.828 376.52979 L135.77266 368.88031 L140.9498 361.41625 L146.35295 354.14136 L151.9756 347.05938 L157.81128 340.17405 L163.85349 333.48913 L170.09574 327.00835 L176.53156 320.73547 L183.15444 314.67423 L189.95791 308.82837 L196.93547 303.20165 L204.08064 297.7978 L211.38693 292.62058 L218.84785 287.67373 L226.4569 282.96099 L234.20762 278.48611 L242.0935 274.25284 L250.10806 270.26493 L258.24481 266.52611 L266.49726 263.04013 L274.85893 259.81075 L283.32332 256.8417 L291.88395 254.13674 L300.53433 251.6996 L309.26798 249.53403 L318.07839 247.64379 L326.9591 246.03261 L335.9036 244.70424 L344.90542 243.66242 L353.95805 242.91091 L363.05503 242.45345 L372.18984 242.29379 L381.35602 242.43566 L390.54707 242.88282 L399.7565 243.63901 L408.97782 244.70798 L418.20456 246.09348 L427.43021 247.79924 L436.64829 249.82902 L445.85231 252.18656 L455.03579 254.8756 L464.19223 257.8999 L473.31516 261.2632 L482.39807 264.96924 L491.43449 269.02178 L500.41792 273.42455 L509.34188 278.1813 L513.77953 280.69359 L513.77953 280.69359 L517.86592 283.09847 L525.88885 288.09373 L533.70888 293.33092 L541.32226 298.8036 L548.72528 304.50531 L555.91421 310.42959 L562.88532 316.56999 L569.63488 322.92006 L576.15918 329.47335 L582.45448 336.22339 L588.51706 343.16373 L594.34318 350.28791 L599.92913 357.5895 L605.27118 365.06202 L610.36559 372.69902 L615.20865 380.49406 L619.79663 388.44067 L624.1258 396.5324 L628.19243 404.76279 L631.9928 413.1254 L635.52318 421.61377 L638.77985 430.22143 L641.75907 438.94195 L644.45713 447.76886 L646.87029 456.69571 L648.99482 465.71604 L650.82702 474.8234 L652.36313 484.01133 L653.59945 493.27339 L654.53223 502.60311 L655.15777 511.99405 L655.47232 521.43974 L655.51181 526.1811" />
    <path d="M372.04724 242.71654 L372.04724 242.71654 L372.04724 242.71654 L372.04724 242.71654 L372.04724 242.71654 L366.94798 242.75965 L356.84123 243.10217 L346.85997 243.78097 L337.00793 244.78958 L327.28888 246.12151 L317.70655 247.77027 L308.26468 249.72938 L298.96703 251.99233 L289.81735 254.55265 L280.81936 257.40386 L271.97683 260.53945 L263.2935 263.95294 L254.77312 267.63785 L246.41942 271.58768 L238.23616 275.79595 L230.22708 280.25618 L222.39593 284.96186 L214.74645 289.90652 L207.28239 295.08366 L200.0075 300.48681 L192.92552 306.10946 L186.04019 311.94514 L179.35527 317.98735 L172.87449 324.2296 L166.60161 330.66542 L160.54037 337.2883 L154.69451 344.09177 L149.06779 351.06933 L143.66395 358.2145 L138.48672 365.52079 L133.53987 372.9817 L128.82713 380.59076 L124.35226 388.34148 L120.11899 396.22736 L116.13107 404.24192 L112.39225 412.37867 L108.90628 420.63112 L105.67689 428.99278 L102.70784 437.45718 L100.00288 446.01781 L97.56574 454.66819 L95.40017 463.40183 L93.50993 472.21225 L91.89875 481.09296 L90.57038 490.03746 L89.52857 499.03928 L88.77706 508.09191 L88.3196 517.18888 L88.15993 526.3237 L88.3018 535.48988 L88.74896 544.68093 L89.50515 553.89036 L90.57412 563.11168 L91.95962 572.33841 L93.66538 581.56406 L95.69516 590.78214 L98.0527 599.98617 L100.74174 609.16965 L103.76604 618.32609 L107.12934 627.44901 L110.83538 636.53193 L114.88792 645.56835 L119.29069 654.55178 L124.04744 663.47574 L126.55973 667.91339 L126.55973 667.91339 L128.96461 671.99978 L133.95987 680.02271 L139.19706 687.84273 L144.66974 695.45612 L150.37145 702.85914 L156.29573 710.04806 L162.43614 717.01918 L168.78621 723.76874 L175.33949 730.29304 L182.08953 736.58834 L189.02987 742.65091 L196.15406 748.47704 L203.45564 754.06299 L210.92816 759.40504 L218.56516 764.49945 L226.3602 769.34251 L234.30681 773.93049 L242.39854 778.25966 L250.62894 782.32629 L258.99154 786.12666 L267.47991 789.65704 L276.08758 792.91371 L284.80809 795.89293 L293.635 798.59098 L302.56185 801.00414 L311.58218 803.12868 L320.68954 804.96087 L329.87748 806.49699 L339.13953 807.7333 L348.46926 808.66609 L357.86019 809.29162 L367.30588 809.60618 L372.04724 809.64567" />
    <path d="M372.04724 242.71654 L372.04724 242.71654 L372.04724 242.71654 L372.04724 242.71654 L372.04724 242.71654 L366.95246 242.75965 L356.85458 243.10217 L346.88208 243.78097 L337.03869 244.78958 L327.32817 246.12151 L317.75425 247.77027 L308.32067 249.72938 L299.03118 251.99233 L289.88953 254.55265 L280.89944 257.40386 L272.06468 260.53945 L263.38897 263.95294 L254.87606 267.63785 L246.5297 271.58768 L238.35362 275.79595 L230.35157 280.25618 L222.5273 284.96186 L214.88453 289.90652 L207.42703 295.08366 L200.15852 300.48681 L193.08275 306.10946 L186.20347 311.94514 L179.52441 317.98735 L173.04933 324.2296 L166.78195 330.66542 L160.72603 337.2883 L154.88531 344.09177 L149.26353 351.06933 L143.86442 358.2145 L138.69175 365.52079 L133.74924 372.9817 L129.04063 380.59076 L124.56969 388.34148 L120.34013 396.22736 L116.35572 404.24192 L112.62018 412.37867 L109.13726 420.63112 L105.91071 428.99278 L102.94427 437.45718 L100.24168 446.01781 L97.80668 454.66819 L95.64302 463.40183 L93.75443 472.21225 L92.14467 481.09296 L90.81746 490.03746 L89.77656 499.03928 L89.02571 508.09191 L88.56866 517.18888 L88.40913 526.3237 L88.55088 535.48988 L88.99765 544.68093 L89.75317 553.89036 L90.8212 563.11168 L92.20548 572.33841 L93.90975 581.56406 L95.93774 590.78214 L98.29321 599.98617 L100.9799 609.16965 L104.00154 618.32609 L107.36189 627.44901 L111.06468 636.53193 L115.11366 645.56835 L119.51256 654.55178 L124.26514 663.47574 L126.77522 667.91339 L126.77522 667.91339 L129.17799 671.99978 L134.16886 680.02271 L139.40146 687.84273 L144.86934 695.45612 L150.56604 702.85914 L156.48512 710.04806 L162.62014 717.01918 L168.96463 723.76874 L175.51216 730.29304 L182.25627 736.58834 L189.19052 742.65091 L196.30846 748.47704 L203.60363 754.06299 L211.06959 759.40504 L218.69989 764.49945 L226.48809 769.34251 L234.42772 773.93049 L242.51235 778.25966 L250.73552 782.32629 L259.09079 786.12666 L267.5717 789.65704 L276.17181 792.91371 L284.88467 795.89293 L293.70383 798.59098 L302.62284 801.00414 L311.63526 803.12868 L320.73462 804.96087 L329.91449 806.49699 L339.16842 807.7333 L348.48995 808.66609 L357.87264 809.29162 L367.31004 809.60618 L372.04724 809.64567" />
    <path d="M372.04724 242.71654 L372.04724 242.71654 L372.04724 242.71654 L372.04724 242.71654 L372.04724 242.71654 L366.96589 242.75965 L356.89462 243.10217 L346.94841 243.78097 L337.13097 244.78958 L327.44604 246.12151 L317.89735 247.77027 L308.48864 249.72938 L299.22364 251.99233 L290.10607 254.55265 L281.13969 257.40386 L272.32821 260.53945 L263.67537 263.95294 L255.1849 267.63785 L246.86053 271.58768 L238.70601 275.79595 L230.72505 280.25618 L222.92139 284.96186 L215.29878 289.90652 L207.86092 295.08366 L200.61157 300.48681 L193.55446 306.10946 L186.69331 311.94514 L180.03186 317.98735 L173.57384 324.2296 L167.32298 330.66542 L161.28302 337.2883 L155.45769 344.09177 L149.85073 351.06933 L144.46586 358.2145 L139.30681 365.52079 L134.37733 372.9817 L129.68114 380.59076 L125.22198 388.34148 L121.00357 396.22736 L117.02965 404.24192 L113.30396 412.37867 L109.83023 420.63112 L106.61218 428.99278 L103.65356 437.45718 L100.95809 446.01781 L98.52951 454.66819 L96.37155 463.40183 L94.48794 472.21225 L92.88242 481.09296 L91.55871 490.03746 L90.52056 499.03928 L89.77169 508.09191 L89.31583 517.18888 L89.15673 526.3237 L89.2981 535.48988 L89.74369 544.68093 L90.49723 553.89036 L91.56245 563.11168 L92.94308 572.33841 L94.64285 581.56406 L96.6655 590.78214 L99.01476 599.98617 L101.69437 609.16965 L104.70805 618.32609 L108.05954 627.44901 L111.75256 636.53193 L115.79087 645.56835 L120.17818 654.55178 L124.91823 663.47574 L127.4217 667.91339 L127.4217 667.91339 L129.81814 671.99978 L134.79585 680.02271 L140.01466 687.84273 L145.46812 695.45612 L151.14981 702.85914 L157.05329 710.04806 L163.17213 717.01918 L169.49991 723.76874 L176.03018 730.29304 L182.75652 736.58834 L189.67249 742.65091 L196.77166 748.47704 L204.04761 754.06299 L211.49389 759.40504 L219.10408 764.49945 L226.87174 769.34251 L234.79045 773.93049 L242.85377 778.25966 L251.05527 782.32629 L259.38851 786.12666 L267.84707 789.65704 L276.42451 792.91371 L285.11441 795.89293 L293.91032 798.59098 L302.80583 801.00414 L311.79449 803.12868 L320.86987 804.96087 L330.02554 806.49699 L339.25508 807.7333 L348.55204 808.66609 L357.91 809.29162 L367.32253 809.60618 L372.04724 809.64567" />
    <path d="M372.04724 242.71654 L372.04724 242.71654 L372.04724 242.71654 L372.04724 242.71654 L372.04724 242.71654 L366.98827 242.75965 L356.96136 243.10217 L347.05895 243.78097 L337.28476 244.78958 L327.64248 246.12151 L318.13585 247.77027 L308.76858 249.72938 L299.54439 251.99233 L290.46699 254.55265 L281.54009 257.40386 L272.76742 260.53945 L264.15269 263.95294 L255.69962 267.63785 L247.41192 271.58768 L239.29331 275.79595 L231.34751 280.25618 L223.57822 284.96186 L215.98918 289.90652 L208.58409 295.08366 L201.36667 300.48681 L194.34063 306.10946 L187.5097 311.94514 L180.87759 317.98735 L174.44802 324.2296 L168.2247 330.66542 L162.21134 337.2883 L156.41167 344.09177 L150.8294 351.06933 L145.46825 358.2145 L140.33192 365.52079 L135.42415 372.9817 L130.74865 380.59076 L126.30912 388.34148 L122.1093 396.22736 L118.15289 404.24192 L114.44361 412.37867 L110.98517 420.63112 L107.7813 428.99278 L104.83571 437.45718 L102.15211 446.01781 L99.73423 454.66819 L97.58577 463.40183 L95.71046 472.21225 L94.11201 481.09296 L92.79413 490.03746 L91.76055 499.03928 L91.01498 508.09191 L90.56113 517.18888 L90.40273 526.3237 L90.54348 535.48988 L90.98711 544.68093 L91.73733 553.89036 L92.79785 563.11168 L94.1724 572.33841 L95.86468 581.56406 L97.87843 590.78214 L100.21734 599.98617 L102.88514 609.16965 L105.88555 618.32609 L109.22228 627.44901 L112.89904 636.53193 L116.91956 645.56835 L121.28754 654.55178 L126.00671 663.47574 L128.49916 667.91339 L128.49916 667.91339 L130.88504 671.99978 L135.84083 680.02271 L141.03665 687.84273 L146.46609 695.45612 L152.12276 702.85914 L158.00024 710.04806 L164.09213 717.01918 L170.39203 723.76874 L176.89354 730.29304 L183.59025 736.58834 L190.47576 742.65091 L197.54367 748.47704 L204.78756 754.06299 L212.20105 759.40504 L219.77772 764.49945 L227.51117 769.34251 L235.395 773.93049 L243.4228 778.25966 L251.58818 782.32629 L259.88472 786.12666 L268.30602 789.65704 L276.84569 792.91371 L285.49731 795.89293 L294.25448 798.59098 L303.1108 801.00414 L312.05987 803.12868 L321.09528 804.96087 L330.21063 806.49699 L339.39951 807.7333 L348.65553 808.66609 L357.97227 809.29162 L367.34334 809.60618 L372.04724 809.64567" />
    <path d="M372.04724 242.71654 L372.04724 242.71654 L372.04724 242.71654 L372.04724 242.71654 L372.04724 242.71654 L367.0196 242.75965 L357.0548 243.10217 L347.21372 243.78097 L337.50006 244.78958 L327.91751 246.12151 L318.46976 247.77027 L309.16051 249.72938 L299.99344 251.99233 L290.97226 254.55265 L282.10066 257.40386 L273.38232 260.53945 L264.82095 263.95294 L256.42023 267.63785 L248.18386 271.58768 L240.11554 275.79595 L232.21895 280.25618 L224.49778 284.96186 L216.95574 289.90652 L209.59652 295.08366 L202.4238 300.48681 L195.44128 306.10946 L188.65266 311.94514 L182.06163 317.98735 L175.67187 324.2296 L169.48709 330.66542 L163.51098 337.2883 L157.74723 344.09177 L152.19954 351.06933 L146.87159 358.2145 L141.76708 365.52079 L136.88971 372.9817 L132.24316 380.59076 L127.83113 388.34148 L123.65732 396.22736 L119.72541 404.24192 L116.0391 412.37867 L112.60209 420.63112 L109.41806 428.99278 L106.49072 437.45718 L103.82374 446.01781 L101.42083 454.66819 L99.28568 463.40183 L97.42198 472.21225 L95.83343 481.09296 L94.52372 490.03746 L93.49654 499.03928 L92.75559 508.09191 L92.30455 517.18888 L92.14713 526.3237 L92.28701 535.48988 L92.72789 544.68093 L93.47346 553.89036 L94.52741 563.11168 L95.89345 572.33841 L97.57525 581.56406 L99.57652 590.78214 L101.90095 599.98617 L104.55223 609.16965 L107.53405 618.32609 L110.85011 627.44901 L114.50411 636.53193 L118.49972 645.56835 L122.84065 654.55178 L127.5306 663.47574 L130.0076 667.91339 L130.0076 667.91339 L132.37871 671.99978 L137.3038 680.02271 L142.46744 687.84273 L147.86326 695.45612 L153.48489 702.85914 L159.32596 710.04806 L165.38012 717.01918 L171.64101 723.76874 L178.10225 730.29304 L184.75748 736.58834 L191.60035 742.65091 L198.62448 748.47704 L205.82351 754.06299 L213.19108 759.40504 L220.72082 764.49945 L228.40637 769.34251 L236.24137 773.93049 L244.21946 778.25966 L252.33426 782.32629 L260.57941 786.12666 L268.94856 789.65704 L277.43533 792.91371 L286.03337 795.89293 L294.7363 798.59098 L303.53777 801.00414 L312.43141 803.12868 L321.41086 804.96087 L330.46975 806.49699 L339.60172 807.7333 L348.80041 808.66609 L358.05945 809.29162 L367.37247 809.60618 L372.04724 809.64567" />
    <path d="M372.04724 242.71654 L372.04724 242.71654 L372.04724 242.71654 L372.04724 242.71654 L372.04724 242.71654 L367.05989 242.75965 L357.17493 243.10217 L347.41271 243.78097 L337.77688 244.78958 L328.27111 246.12151 L318.89907 247.77027 L309.66441 249.72938 L300.5708 251.99233 L291.62191 254.55265 L282.82139 257.40386 L274.17291 260.53945 L265.68014 263.95294 L257.34674 267.63785 L249.17636 271.58768 L241.17269 275.79595 L233.33937 280.25618 L225.68008 284.96186 L218.19847 289.90652 L210.89821 295.08366 L203.78297 300.48681 L196.8564 306.10946 L190.12217 311.94514 L183.58395 317.98735 L177.2454 324.2296 L171.11018 330.66542 L165.18195 337.2883 L159.46439 344.09177 L153.96115 351.06933 L148.67589 358.2145 L143.61228 365.52079 L138.77399 372.9817 L134.16467 380.59076 L129.788 388.34148 L125.64763 396.22736 L121.74723 404.24192 L118.09046 412.37867 L114.68099 420.63112 L111.52247 428.99278 L108.61858 437.45718 L105.97298 446.01781 L103.58932 454.66819 L101.47128 463.40183 L99.62252 472.21225 L98.04669 481.09296 L96.74748 490.03746 L95.72853 499.03928 L94.99351 508.09191 L94.54609 517.18888 L94.38992 526.3237 L94.52868 535.48988 L94.96603 544.68093 L95.70563 553.89036 L96.75114 563.11168 L98.10623 572.33841 L99.77456 581.56406 L101.75979 590.78214 L104.06559 599.98617 L106.69563 609.16965 L109.65356 618.32609 L112.94305 627.44901 L116.56776 636.53193 L120.53136 645.56835 L124.83751 654.55178 L129.48987 663.47574 L131.94703 667.91339 L131.94703 667.91339 L134.29914 671.99978 L139.18477 680.02271 L144.30703 687.84273 L149.65961 695.45612 L155.23619 702.85914 L161.03047 710.04806 L167.03612 717.01918 L173.24683 723.76874 L179.6563 730.29304 L186.25821 736.58834 L193.04624 742.65091 L200.01409 748.47704 L207.15543 754.06299 L214.46397 759.40504 L221.93338 764.49945 L229.55735 769.34251 L237.32957 773.93049 L245.24372 778.25966 L253.2935 782.32629 L261.47259 786.12666 L269.77467 789.65704 L278.19344 792.91371 L286.72258 795.89293 L295.35578 798.59098 L304.08673 801.00414 L312.9091 803.12868 L321.8166 804.96087 L330.8029 806.49699 L339.8617 807.7333 L348.98668 808.66609 L358.17153 809.29162 L367.40993 809.60618 L372.04724 809.64567" />
    <path d="M372.04724 242.71654 L372.04724 242.71654 L372.04724 242.71654 L372.04724 242.71654 L372.04724 242.71654 L367.10913 242.75965 L357.32176 243.10217 L347.65592 243.78097 L338.11522 244.78958 L328.7033 246.12151 L319.42378 247.77027 L310.28029 249.72938 L301.27646 251.99233 L292.41591 254.55265 L283.70228 257.40386 L275.13919 260.53945 L266.73026 263.95294 L258.47913 267.63785 L250.38942 271.58768 L242.46476 275.79595 L234.70878 280.25618 L227.1251 284.96186 L219.71736 289.90652 L212.48917 295.08366 L205.44417 300.48681 L198.58599 306.10946 L191.91825 311.94514 L185.44458 317.98735 L179.1686 324.2296 L173.09395 330.66542 L167.22425 337.2883 L161.56313 344.09177 L156.11422 351.06933 L150.88115 358.2145 L145.86753 365.52079 L141.077 372.9817 L136.51319 380.59076 L132.17973 388.34148 L128.08024 396.22736 L124.21834 404.24192 L120.59768 412.37867 L117.22186 420.63112 L114.09453 428.99278 L111.21931 437.45718 L108.59982 446.01781 L106.2397 454.66819 L104.14257 463.40183 L102.31206 472.21225 L100.75179 481.09296 L99.4654 490.03746 L98.45651 499.03928 L97.72875 508.09191 L97.28575 517.18888 L97.13113 526.3237 L97.26852 535.48988 L97.70155 544.68093 L98.43384 553.89036 L99.46903 563.11168 L100.81074 572.33841 L102.4626 581.56406 L104.42823 590.78214 L106.71127 599.98617 L109.31534 609.16965 L112.24407 618.32609 L115.50108 627.44901 L119.09001 636.53193 L123.01448 645.56835 L127.27811 654.55178 L131.88455 663.47574 L134.31744 667.91339 L134.31744 667.91339 L136.64633 671.99978 L141.48373 680.02271 L146.55542 687.84273 L151.85516 695.45612 L157.37668 702.85914 L163.11375 710.04806 L169.06011 717.01918 L175.20951 723.76874 L181.5557 730.29304 L188.09243 736.58834 L194.81345 742.65091 L201.7125 748.47704 L208.78335 754.06299 L216.01973 759.40504 L223.41539 764.49945 L230.96409 769.34251 L238.65958 773.93049 L246.4956 778.25966 L254.46591 782.32629 L262.56425 786.12666 L270.78437 789.65704 L279.12002 792.91371 L287.56496 795.89293 L296.11293 798.59098 L304.75767 801.00414 L313.49295 803.12868 L322.31251 804.96087 L331.21009 806.49699 L340.17946 807.7333 L349.21435 808.66609 L358.30852 809.29162 L367.45571 809.60618 L372.04724 809.64567" />
    <path d="M372.04724 242.71654 L372.04724 242.71654 L372.04724 242.71654 L372.04724 242.71654 L372.04724 242.71654 L367.16732 242.75965 L357.49529 243.10217 L347.94334 243.78097 L338.51507 244.78958 L329.21406 246.12151 L320.04389 247.77027 L311.00815 249.72938 L302.11042 251.99233 L293.35428 254.55265 L284.74333 257.40386 L276.28114 260.53945 L267.97131 263.95294 L259.81741 267.63785 L251.82303 271.58768 L243.99175 275.79595 L236.32717 280.25618 L228.83286 284.96186 L221.5124 289.90652 L214.36939 295.08366 L207.40741 300.48681 L200.63005 306.10946 L194.04088 311.94514 L187.64349 317.98735 L181.44147 324.2296 L175.43841 330.66542 L169.63788 337.2883 L164.04347 344.09177 L158.65877 351.06933 L153.48736 358.2145 L148.53282 365.52079 L143.79875 372.9817 L139.28872 380.59076 L135.00632 388.34148 L130.95513 396.22736 L127.13875 404.24192 L123.56074 412.37867 L120.22471 420.63112 L117.13423 428.99278 L114.29289 437.45718 L111.70427 446.01781 L109.37196 454.66819 L107.29954 463.40183 L105.4906 472.21225 L103.94873 481.09296 L102.67749 490.03746 L101.68049 499.03928 L100.96131 508.09191 L100.52352 517.18888 L100.37072 526.3237 L100.5065 535.48988 L100.93442 544.68093 L101.65809 553.89036 L102.68108 563.11168 L104.00698 572.33841 L105.63937 581.56406 L107.58184 590.78214 L109.83798 599.98617 L112.41136 609.16965 L115.30558 618.32609 L118.52421 627.44901 L122.07085 636.53193 L125.94907 645.56835 L130.16246 654.55178 L134.71461 663.47574 L137.11884 667.91339 L137.11884 667.91339 L139.42028 671.99978 L144.20068 680.02271 L149.21261 687.84273 L154.44989 695.45612 L159.90635 702.85914 L165.57582 710.04806 L171.4521 717.01918 L177.52904 723.76874 L183.80045 730.29304 L190.26015 736.58834 L196.90196 742.65091 L203.71972 748.47704 L210.70724 754.06299 L217.85835 759.40504 L225.16686 764.49945 L232.62661 769.34251 L240.23141 773.93049 L247.9751 778.25966 L255.85148 782.32629 L263.85439 786.12666 L271.97765 789.65704 L280.21507 792.91371 L288.56049 795.89293 L297.00773 798.59098 L305.55061 801.00414 L314.18295 803.12868 L322.89858 804.96087 L331.69132 806.49699 L340.55499 807.7333 L349.48341 808.66609 L358.47042 809.29162 L367.50982 809.60618 L372.04724 809.64567" />
    <path d="M372.04724 242.71654 L372.04724 242.71654 L372.04724 242.71654 L372.04724 242.71654 L372.04724 242.71654 L367.23446 242.75965 L357.69551 243.10217 L348.27499 243.78097 L338.97644 244.78958 L329.8034 246.12151 L320.75941 247.77027 L311.84799 249.72938 L303.07268 251.99233 L294.43702 254.55265 L285.94455 257.40386 L277.59879 260.53945 L269.40329 263.95294 L261.36158 267.63785 L253.47719 271.58768 L245.75367 275.79595 L238.19454 280.25618 L230.80334 284.96186 L223.58361 289.90652 L216.53888 295.08366 L209.67269 300.48681 L202.98858 306.10946 L196.49007 311.94514 L190.1807 317.98735 L184.06402 324.2296 L178.14355 330.66542 L172.42283 337.2883 L166.90539 344.09177 L161.59478 351.06933 L156.49452 358.2145 L151.60815 365.52079 L146.93922 372.9817 L142.49124 380.59076 L138.26776 388.34148 L134.27232 396.22736 L130.50844 404.24192 L126.97967 412.37867 L123.68954 420.63112 L120.64158 428.99278 L117.83933 437.45718 L115.28633 446.01781 L112.98611 454.66819 L110.94221 463.40183 L109.15815 472.21225 L107.63749 481.09296 L106.38375 490.03746 L105.40047 499.03928 L104.69118 508.09191 L104.25941 517.18888 L104.10872 526.3237 L104.24262 535.48988 L104.66466 544.68093 L105.37837 553.89036 L106.38728 563.11168 L107.69494 572.33841 L109.30487 581.56406 L111.22062 590.78214 L113.44571 599.98617 L115.98369 609.16965 L118.83808 618.32609 L122.01243 627.44901 L125.51027 636.53193 L129.33513 645.56835 L133.49055 654.55178 L137.98007 663.47574 L140.35122 667.91339 L140.35122 667.91339 L142.62099 671.99978 L147.33562 680.02271 L152.27859 687.84273 L157.44381 695.45612 L162.8252 702.85914 L168.41665 710.04806 L174.21209 717.01918 L180.20541 723.76874 L186.39053 730.29304 L192.76135 736.58834 L199.31178 742.65091 L206.03574 748.47704 L212.92711 754.06299 L219.97983 759.40504 L227.18779 764.49945 L234.5449 769.34251 L242.04507 773.93049 L249.6822 778.25966 L257.45022 782.32629 L265.34301 786.12666 L273.3545 789.65704 L281.47859 792.91371 L289.70919 795.89293 L298.0402 798.59098 L306.46554 801.00414 L314.97911 803.12868 L323.57482 804.96087 L332.24657 806.49699 L340.98829 807.7333 L349.79387 808.66609 L358.65722 809.29162 L367.57225 809.60618 L372.04724 809.64567" />
    <path d="M372.04724 242.71654 L372.04724 242.71654 L372.04724 242.71654 L372.04724 242.71654 L372.04724 242.71654 L367.31055 242.75965 L357.92242 243.10217 L348.65085 243.78097 L339.49933 244.78958 L330.47132 246.12151 L321.57032 247.77027 L312.7998 249.72938 L304.16324 251.99233 L295.66412 254.55265 L287.30592 257.40386 L279.09212 260.53945 L271.0262 263.95294 L263.11164 267.63785 L255.35191 271.58768 L247.75051 275.79595 L240.31089 280.25618 L233.03656 284.96186 L225.93098 289.90652 L218.99764 295.08366 L212.24001 300.48681 L205.66158 306.10946 L199.26582 311.94514 L193.05621 317.98735 L187.03623 324.2296 L181.20937 330.66542 L175.5791 337.2883 L170.14891 344.09177 L164.92226 351.06933 L159.90264 358.2145 L155.09353 365.52079 L150.49842 372.9817 L146.12077 380.59076 L141.96407 388.34148 L138.03179 396.22736 L134.32743 404.24192 L130.85445 412.37867 L127.61634 420.63112 L124.61657 428.99278 L121.85863 437.45718 L119.346 446.01781 L117.08215 454.66819 L115.07056 463.40183 L113.31471 472.21225 L111.81809 481.09296 L110.58418 490.03746 L109.61644 499.03928 L108.91836 508.09191 L108.49343 517.18888 L108.34512 526.3237 L108.4769 535.48988 L108.89227 544.68093 L109.59469 553.89036 L110.58765 563.11168 L111.87464 572.33841 L113.45911 581.56406 L115.34457 590.78214 L117.53448 599.98617 L120.03233 609.16965 L122.84159 618.32609 L125.96575 627.44901 L129.40828 636.53193 L133.17267 645.56835 L137.26239 654.55178 L141.68092 663.47574 L144.01458 667.91339 L144.01458 667.91339 L146.24847 671.99978 L150.88855 680.02271 L155.75336 687.84273 L160.83692 695.45612 L166.13322 702.85914 L171.63627 710.04806 L177.34008 717.01918 L183.23864 723.76874 L189.32596 730.29304 L195.59605 736.58834 L202.04292 742.65091 L208.66056 748.47704 L215.44298 754.06299 L222.38418 759.40504 L229.47817 764.49945 L236.71896 769.34251 L244.10054 773.93049 L251.61693 778.25966 L259.26212 782.32629 L267.03012 786.12666 L274.91494 789.65704 L282.91058 792.91371 L291.01104 795.89293 L299.21033 798.59098 L307.50245 801.00414 L315.88141 803.12868 L324.34122 804.96087 L332.87587 806.49699 L341.47936 807.7333 L350.14572 808.66609 L358.86893 809.29162 L367.64301 809.60618 L372.04724 809.64567" />
    <path d="M372.04724 242.71654 L372.04724 242.71654 L372.04724 242.71654 L372.04724 242.71654 L372.04724 242.71654 L367.3956 242.75965 L358.17603 243.10217 L349.07094 243.78097 L340.08373 244.78958 L331.21782 246.12151 L322.47664 247.77027 L313.86359 249.72938 L305.38211 251.99233 L297.03559 254.55265 L288.82746 257.40386 L280.76114 260.53945 L272.84004 263.95294 L265.06759 267.63785 L257.44719 271.58768 L249.98227 275.79595 L242.67623 280.25618 L235.53251 284.96186 L228.55451 289.90652 L221.74566 295.08366 L215.10936 300.48681 L208.64905 306.10946 L202.36812 311.94514 L196.27001 317.98735 L190.35813 324.2296 L184.63589 330.66542 L179.10671 337.2883 L173.77401 344.09177 L168.64121 351.06933 L163.71172 358.2145 L158.98896 365.52079 L154.47635 372.9817 L150.1773 380.59076 L146.09523 388.34148 L142.23357 396.22736 L138.59571 404.24192 L135.18509 412.37867 L132.00512 420.63112 L129.05922 428.99278 L126.3508 437.45718 L123.88327 446.01781 L121.66007 454.66819 L119.6846 463.40183 L117.96028 472.21225 L116.49054 481.09296 L115.27877 490.03746 L114.32841 499.03928 L113.64287 508.09191 L113.22557 517.18888 L113.07992 526.3237 L113.20934 535.48988 L113.61724 544.68093 L114.30706 553.89036 L115.28219 563.11168 L116.54606 572.33841 L118.10209 581.56406 L119.95369 590.78214 L122.10429 599.98617 L124.55728 609.16965 L127.31611 618.32609 L130.38417 627.44901 L133.76489 636.53193 L137.46169 645.56835 L141.47798 654.55178 L145.81718 663.47574 L148.10893 667.91339 L148.10893 667.91339 L150.30271 671.99978 L154.85948 680.02271 L159.63695 687.84273 L164.62923 695.45612 L169.83043 702.85914 L175.23467 710.04806 L180.83607 717.01918 L186.62872 723.76874 L192.60674 730.29304 L198.76426 736.58834 L205.09536 742.65091 L211.59418 748.47704 L218.25482 754.06299 L225.0714 759.40504 L232.03802 764.49945 L239.14879 769.34251 L246.39784 773.93049 L253.77927 778.25966 L261.28719 782.32629 L268.91572 786.12666 L276.65896 789.65704 L284.51104 792.91371 L292.46605 795.89293 L300.51813 798.59098 L308.66136 801.00414 L316.88988 803.12868 L325.19778 804.96087 L333.57919 806.49699 L342.02821 807.7333 L350.53896 808.66609 L359.10555 809.29162 L367.72208 809.60618 L372.04724 809.64567" />
    <path d="M372.04724 242.71654 L372.04724 242.71654 L372.04724 242.71654 L372.04724 242.71654 L372.04724 242.71654 L367.4896 242.75965 L358.45634 243.10217 L349.53524 243.78097 L340.72964 244.78958 L332.0429 246.12151 L323.47836 247.77027 L315.03937 249.72938 L306.72927 251.99233 L298.55142 254.55265 L290.50916 257.40386 L282.60584 260.53945 L274.84482 263.95294 L267.22943 267.63785 L259.76302 271.58768 L252.44895 275.79595 L245.29056 280.25618 L238.29119 284.96186 L231.45421 289.90652 L224.78294 295.08366 L218.28076 300.48681 L211.95099 306.10946 L205.79699 311.94514 L199.82211 317.98735 L194.02969 324.2296 L188.42308 330.66542 L183.00564 337.2883 L177.7807 344.09177 L172.75162 351.06933 L167.92175 358.2145 L163.29443 365.52079 L158.87301 372.9817 L154.66083 380.59076 L150.66126 388.34148 L146.87763 396.22736 L143.31329 404.24192 L139.97159 412.37867 L136.85588 420.63112 L133.9695 428.99278 L131.31581 437.45718 L128.89816 446.01781 L126.71988 454.66819 L124.78433 463.40183 L123.09486 472.21225 L121.65481 481.09296 L120.46753 490.03746 L119.53638 499.03928 L118.86469 508.09191 L118.45582 517.18888 L118.31311 526.3237 L118.43992 535.48988 L118.83958 544.68093 L119.51545 553.89036 L120.47088 563.11168 L121.70921 572.33841 L123.2338 581.56406 L125.04798 590.78214 L127.15512 599.98617 L129.55855 609.16965 L132.26162 618.32609 L135.26768 627.44901 L138.58009 636.53193 L142.20218 645.56835 L146.13731 654.55178 L150.38882 663.47574 L152.63426 667.91339 L152.63426 667.91339 L154.78371 671.99978 L159.2484 680.02271 L163.92932 687.84273 L168.82072 695.45612 L173.91682 702.85914 L179.21185 710.04806 L184.70005 717.01918 L190.37564 723.76874 L196.23287 730.29304 L202.26595 736.58834 L208.46912 742.65091 L214.83661 748.47704 L221.36265 754.06299 L228.04148 759.40504 L234.86731 764.49945 L241.8344 769.34251 L248.93695 773.93049 L256.16922 778.25966 L263.52542 782.32629 L270.99979 786.12666 L278.58656 789.65704 L286.27996 792.91371 L294.07423 795.89293 L301.96358 798.59098 L309.94226 801.00414 L318.00449 803.12868 L326.14451 804.96087 L334.35655 806.49699 L342.63484 807.7333 L350.9736 808.66609 L359.36707 809.29162 L367.80949 809.60618 L372.04724 809.64567" />
    <path d="M372.04724 242.71654 L372.04724 242.71654 L372.04724 242.71654 L372.04724 242.71654 L372.04724 242.71654 L367.59255 242.75965 L358.76335 243.10217 L350.04376 243.78097 L341.43708 244.78958 L332.94656 246.12151 L324.57548 247.77027 L316.32712 249.72938 L308.20474 251.99233 L300.21162 254.55265 L292.35102 257.40386 L284.62624 260.53945 L277.04052 263.95294 L269.59715 267.63785 L262.29941 271.58768 L255.15055 275.79595 L248.15386 280.25618 L241.31261 284.96186 L234.63006 289.90652 L228.10949 295.08366 L221.75418 300.48681 L215.5674 306.10946 L209.55241 311.94514 L203.7125 317.98735 L198.05092 324.2296 L192.57097 330.66542 L187.2759 337.2883 L182.16899 344.09177 L177.25351 351.06933 L172.53274 358.2145 L168.00994 365.52079 L163.6884 372.9817 L159.57137 380.59076 L155.66214 388.34148 L151.96398 396.22736 L148.48015 404.24192 L145.21394 412.37867 L142.16861 420.63112 L139.34744 428.99278 L136.75369 437.45718 L134.39065 446.01781 L132.26157 454.66819 L130.36975 463.40183 L128.71844 472.21225 L127.31092 481.09296 L126.15046 490.03746 L125.24034 499.03928 L124.58382 508.09191 L124.18419 517.18888 L124.0447 526.3237 L124.16865 535.48988 L124.55928 544.68093 L125.21989 553.89036 L126.15373 563.11168 L127.36409 572.33841 L128.85424 581.56406 L130.62744 590.78214 L132.68698 599.98617 L135.03612 609.16965 L137.67813 618.32609 L140.61629 627.44901 L143.85387 636.53193 L147.39414 645.56835 L151.24038 654.55178 L155.39585 663.47574 L157.59058 667.91339 L157.59058 667.91339 L159.69147 671.99978 L164.0553 680.02271 L168.63049 687.84273 L173.41139 695.45612 L178.39238 702.85914 L183.5678 710.04806 L188.93203 717.01918 L194.47942 723.76874 L200.20433 730.29304 L206.10113 736.58834 L212.16418 742.65091 L218.38783 748.47704 L224.76646 754.06299 L231.29442 759.40504 L237.96607 764.49945 L244.77577 769.34251 L251.71789 773.93049 L258.78678 778.25966 L265.97682 782.32629 L273.28235 786.12666 L280.69774 789.65704 L288.21736 792.91371 L295.83556 795.89293 L303.5467 798.59098 L311.34515 801.00414 L319.22527 803.12868 L327.18141 804.96087 L335.20795 806.49699 L343.29923 807.7333 L351.44963 808.66609 L359.6535 809.29162 L367.90521 809.60618 L372.04724 809.64567" />
    <path d="M372.04724 242.71654 L372.04724 242.71654 L372.04724 242.71654 L372.04724 242.71654 L372.04724 242.71654 L367.70446 242.75965 L359.09705 243.10217 L350.59651 243.78097 L342.20603 244.78958 L333.9288 246.12151 L325.768 247.77027 L317.72684 249.72938 L309.80851 251.99233 L302.01618 254.55265 L294.35305 257.40386 L286.82231 260.53945 L279.42716 263.95294 L272.17077 267.63785 L265.05635 271.58768 L258.08708 275.79595 L251.26615 280.25618 L244.59675 284.96186 L238.08207 289.90652 L231.72531 295.08366 L225.52965 300.48681 L219.49828 306.10946 L213.6344 311.94514 L207.94118 317.98735 L202.42183 324.2296 L197.07954 330.66542 L191.91748 337.2883 L186.93886 344.09177 L182.14686 351.06933 L177.54468 358.2145 L173.1355 365.52079 L168.92252 372.9817 L164.90891 380.59076 L161.09789 388.34148 L157.49262 396.22736 L154.09632 404.24192 L150.91215 412.37867 L147.94332 420.63112 L145.19302 428.99278 L142.66443 437.45718 L140.36075 446.01781 L138.28516 454.66819 L136.44085 463.40183 L134.83103 472.21225 L133.45887 481.09296 L132.32756 490.03746 L131.4403 499.03928 L130.80028 508.09191 L130.41068 517.18888 L130.2747 526.3237 L130.39553 535.48988 L130.77635 544.68093 L131.42036 553.89036 L132.33075 563.11168 L133.51071 572.33841 L134.96342 581.56406 L136.69208 590.78214 L138.69988 599.98617 L140.99 609.16965 L143.56565 618.32609 L146.43 627.44901 L149.58625 636.53193 L153.03759 645.56835 L156.7872 654.55178 L160.83829 663.47574 L162.97788 667.91339 L162.97788 667.91339 L165.026 671.99978 L169.28021 680.02271 L173.74046 687.84273 L178.40127 695.45612 L183.25713 702.85914 L188.30254 710.04806 L193.53201 717.01918 L198.94005 723.76874 L204.52115 730.29304 L210.26982 736.58834 L216.18055 742.65091 L222.24787 748.47704 L228.46626 754.06299 L234.83023 759.40504 L241.33428 764.49945 L247.97292 769.34251 L254.74065 773.93049 L261.63197 778.25966 L268.64138 782.32629 L275.76339 786.12666 L282.99251 789.65704 L290.32322 792.91371 L297.75005 795.89293 L305.26748 798.59098 L312.87003 801.00414 L320.55219 803.12868 L328.30847 804.96087 L336.13337 806.49699 L344.0214 807.7333 L351.96706 808.66609 L359.96484 809.29162 L368.00926 809.60618 L372.04724 809.64567" />
    <path d="M372.04724 242.71654 L372.04724 242.71654 L372.04724 242.71654 L372.04724 242.71654 L372.04724 242.71654 L367.82532 242.75965 L359.45745 243.10217 L351.19347 243.78097 L343.03649 244.78958 L334.98961 246.12151 L327.05593 247.77027 L319.23855 249.72938 L311.54057 251.99233 L303.9651 254.55265 L296.51523 257.40386 L289.19407 260.53945 L282.00472 263.95294 L274.95028 267.63785 L268.03385 271.58768 L261.25853 275.79595 L254.62742 280.25618 L248.14363 284.96186 L241.81025 289.90652 L235.63039 295.08366 L229.60715 300.48681 L223.74363 306.10946 L218.04294 311.94514 L212.50816 317.98735 L207.14241 324.2296 L201.94879 330.66542 L196.93039 337.2883 L192.09032 344.09177 L187.43169 351.06933 L182.95758 358.2145 L178.6711 365.52079 L174.57536 372.9817 L170.67346 380.59076 L166.96849 388.34148 L163.46356 396.22736 L160.16177 404.24192 L157.06622 412.37867 L154.18001 420.63112 L151.50624 428.99278 L149.04802 437.45718 L146.80845 446.01781 L144.79062 454.66819 L142.99765 463.40183 L141.43262 472.21225 L140.09865 481.09296 L138.99882 490.03746 L138.13626 499.03928 L137.51405 508.09191 L137.13529 517.18888 L137.0031 526.3237 L137.12056 535.48988 L137.49079 544.68093 L138.11687 553.89036 L139.00193 563.11168 L140.14904 572.33841 L141.56133 581.56406 L143.24188 590.78214 L145.1938 599.98617 L147.42019 609.16965 L149.92416 618.32609 L152.7088 627.44901 L155.77721 636.53193 L159.1325 645.56835 L162.77777 654.55178 L166.71612 663.47574 L168.79616 667.91339 L168.79616 667.91339 L170.78728 671.99978 L174.9231 680.02271 L179.25923 687.84273 L183.79032 695.45612 L188.51105 702.85914 L193.41605 710.04806 L198.49999 717.01918 L203.75752 723.76874 L209.1833 730.29304 L214.77199 736.58834 L220.51824 742.65091 L226.4167 748.47704 L232.46204 754.06299 L238.6489 759.40504 L244.97195 764.49945 L251.42584 769.34251 L258.00522 773.93049 L264.70476 778.25966 L271.51911 782.32629 L278.44292 786.12666 L285.47085 789.65704 L292.59756 792.91371 L299.8177 795.89293 L307.12592 798.59098 L314.5169 801.00414 L321.98527 803.12868 L329.5257 804.96087 L337.13284 806.49699 L344.80135 807.7333 L352.52588 808.66609 L360.30109 809.29162 L368.12164 809.60618 L372.04724 809.64567" />
    <path d="M372.04724 242.71654 L372.04724 242.71654 L372.04724 242.71654 L372.04724 242.71654 L372.04724 242.71654 L367.95513 242.75965 L359.84454 243.10217 L351.83465 243.78097 L343.92847 244.78958 L336.129 246.12151 L328.43926 247.77027 L320.86224 249.72938 L313.40095 251.99233 L306.05839 254.55265 L298.83758 257.40386 L291.74152 260.53945 L284.77322 263.95294 L277.93567 267.63785 L271.2319 271.58768 L264.6649 275.79595 L258.23767 280.25618 L251.95323 284.96186 L245.81459 289.90652 L239.82474 295.08366 L233.98669 300.48681 L228.30346 306.10946 L222.77804 311.94514 L217.41344 317.98735 L212.21267 324.2296 L207.17873 330.66542 L202.31463 337.2883 L197.62338 344.09177 L193.10798 351.06933 L188.77143 358.2145 L184.61675 365.52079 L180.64694 372.9817 L176.86501 380.59076 L173.27395 388.34148 L169.87679 396.22736 L166.67651 404.24192 L163.67614 412.37867 L160.87867 420.63112 L158.28712 428.99278 L155.90448 437.45718 L153.73377 446.01781 L151.77798 454.66819 L150.04013 463.40183 L148.52322 472.21225 L147.23026 481.09296 L146.16426 490.03746 L145.32821 499.03928 L144.72513 508.09191 L144.35802 517.18888 L144.22989 526.3237 L144.34374 535.48988 L144.70259 544.68093 L145.30942 553.89036 L146.16726 563.11168 L147.27911 572.33841 L148.64797 581.56406 L150.27685 590.78214 L152.16876 599.98617 L154.3267 609.16965 L156.75368 618.32609 L159.4527 627.44901 L162.42677 636.53193 L165.67889 645.56835 L169.21208 654.55178 L173.02934 663.47574 L175.04543 667.91339 L175.04543 667.91339 L176.97533 671.99978 L180.98398 680.02271 L185.18679 687.84273 L189.57857 695.45612 L194.15415 702.85914 L198.90834 710.04806 L203.83597 717.01918 L208.93185 723.76874 L214.19081 730.29304 L219.60766 736.58834 L225.17723 742.65091 L230.89434 748.47704 L236.7538 754.06299 L242.75044 759.40504 L248.87907 764.49945 L255.13453 769.34251 L261.51162 773.93049 L268.00517 778.25966 L274.61 782.32629 L281.32093 786.12666 L288.13277 789.65704 L295.04036 792.91371 L302.03851 795.89293 L309.12203 798.59098 L316.28576 801.00414 L323.5245 803.12868 L330.83309 804.96087 L338.20633 806.49699 L345.63906 807.7333 L353.12609 808.66609 L360.66224 809.29162 L368.24234 809.60618 L372.04724 809.64567" />
    <path d="M372.04724 242.71654 L372.04724 242.71654 L372.04724 242.71654 L372.04724 242.71654 L372.04724 242.71654 L368.09389 242.75965 L360.25833 243.10217 L352.52005 243.78097 L344.88197 244.78958 L337.34698 246.12151 L329.91799 247.77027 L322.5979 249.72938 L315.38962 251.99233 L308.29605 254.55265 L301.32009 257.40386 L294.46466 260.53945 L287.73265 263.95294 L281.12696 267.63785 L274.65051 271.58768 L268.30619 275.79595 L262.09691 280.25618 L256.02557 284.96186 L250.09509 289.90652 L244.30835 295.08366 L238.66827 300.48681 L233.17775 306.10946 L227.8397 311.94514 L222.65701 317.98735 L217.63259 324.2296 L212.76935 330.66542 L208.0702 337.2883 L203.53802 344.09177 L199.17574 351.06933 L194.98624 358.2145 L190.97245 365.52079 L187.13725 372.9817 L183.48356 380.59076 L180.01428 388.34148 L176.73231 396.22736 L173.64055 404.24192 L170.74192 412.37867 L168.03932 420.63112 L165.53564 428.99278 L163.2338 437.45718 L161.13669 446.01781 L159.24722 454.66819 L157.56831 463.40183 L156.10284 472.21225 L154.85372 481.09296 L153.82386 490.03746 L153.01617 499.03928 L152.43354 508.09191 L152.07887 517.18888 L151.95509 526.3237 L152.06508 535.48988 L152.41175 544.68093 L152.99802 553.89036 L153.82677 563.11168 L154.90091 572.33841 L156.22336 581.56406 L157.797 590.78214 L159.62476 599.98617 L161.70952 609.16965 L164.0542 618.32609 L166.6617 627.44901 L169.53492 636.53193 L172.67676 645.56835 L176.09014 654.55178 L179.77796 663.47574 L181.72569 667.91339 L181.72569 667.91339 L183.59014 671.99978 L187.46287 680.02271 L191.52316 687.84273 L195.76602 695.45612 L200.18644 702.85914 L204.77941 710.04806 L209.53995 717.01918 L214.46303 723.76874 L219.54366 730.29304 L224.77683 736.58834 L230.15753 742.65091 L235.68078 748.47704 L241.34155 754.06299 L247.13484 759.40504 L253.05566 764.49945 L259.09899 769.34251 L265.25984 773.93049 L271.5332 778.25966 L277.91406 782.32629 L284.39742 786.12666 L290.97828 789.65704 L297.65163 792.91371 L304.41247 795.89293 L311.2558 798.59098 L318.17661 801.00414 L325.16989 803.12868 L332.23064 804.96087 L339.35387 806.49699 L346.53455 807.7333 L353.7677 808.66609 L361.0483 809.29162 L368.37136 809.60618 L372.04724 809.64567" />
    <path d="M372.04724 242.71654 L372.04724 242.71654 L372.04724 242.71654 L372.04724 242.71654 L372.04724 242.71654 L368.2416 242.75965 L360.69881 243.10217 L353.24967 243.78097 L345.89698 244.78958 L338.64353 246.12151 L331.49212 247.77027 L324.44554 249.72938 L317.50659 251.99233 L310.67807 254.55265 L303.96277 257.40386 L297.36348 260.53945 L290.883 263.95294 L284.52413 267.63785 L278.28967 271.58768 L272.1824 275.79595 L266.20513 280.25618 L260.36065 284.96186 L254.65175 289.90652 L249.08123 295.08366 L243.65189 300.48681 L238.36652 306.10946 L233.22791 311.94514 L228.23887 317.98735 L223.40219 324.2296 L218.72067 330.66542 L214.19709 337.2883 L209.83425 344.09177 L205.63496 351.06933 L201.60201 358.2145 L197.73818 365.52079 L194.04629 372.9817 L190.52911 380.59076 L187.18946 388.34148 L184.03012 396.22736 L181.05389 404.24192 L178.26356 412.37867 L175.66193 420.63112 L173.25181 428.99278 L171.03597 437.45718 L169.01722 446.01781 L167.19835 454.66819 L165.58217 463.40183 L164.17145 472.21225 L162.96901 481.09296 L161.97763 490.03746 L161.20011 499.03928 L160.63925 508.09191 L160.29784 517.18888 L160.17868 526.3237 L160.28457 535.48988 L160.61829 544.68093 L161.18264 553.89036 L161.98043 563.11168 L163.01444 572.33841 L164.28747 581.56406 L165.80232 590.78214 L167.56178 599.98617 L169.56865 609.16965 L171.82572 618.32609 L174.33579 627.44901 L177.10165 636.53193 L180.12611 645.56835 L183.41195 654.55178 L186.96197 663.47574 L188.83692 667.91339 L188.83692 667.91339 L190.63172 671.99978 L194.35974 680.02271 L198.26832 687.84273 L202.35264 695.45612 L206.6079 702.85914 L211.02926 710.04806 L215.61192 717.01918 L220.35106 723.76874 L225.24185 730.29304 L230.27949 736.58834 L235.45915 742.65091 L240.77602 748.47704 L246.22528 754.06299 L251.80211 759.40504 L257.5017 764.49945 L263.31923 769.34251 L269.24988 773.93049 L275.28884 778.25966 L281.43128 782.32629 L287.6724 786.12666 L294.00737 789.65704 L300.43138 792.91371 L306.9396 795.89293 L313.52723 798.59098 L320.18945 801.00414 L326.92143 803.12868 L333.71836 804.96087 L340.57543 806.49699 L347.48782 807.7333 L354.4507 808.66609 L361.45927 809.29162 L368.50871 809.60618 L372.04724 809.64567" />
    <path d="M372.04724 242.71654 L372.04724 242.71654 L372.04724 242.71654 L372.04724 242.71654 L372.04724 242.71654 L368.39827 242.75965 L361.16599 243.10217 L354.02351 243.78097 L346.97351 244.78958 L340.01866 246.12151 L333.16165 247.77027 L326.40516 249.72938 L319.75187 251.99233 L313.20445 254.55265 L306.7656 257.40386 L300.43799 260.53945 L294.22429 263.95294 L288.1272 267.63785 L282.14939 271.58768 L276.29354 275.79595 L270.56233 280.25618 L264.95845 284.96186 L259.48457 289.90652 L254.14337 295.08366 L248.93754 300.48681 L243.86975 306.10946 L238.94269 311.94514 L234.15903 317.98735 L229.52146 324.2296 L225.03266 330.66542 L220.69531 337.2883 L216.51208 344.09177 L212.48566 351.06933 L208.61873 358.2145 L204.91396 365.52079 L201.37405 372.9817 L198.00167 380.59076 L194.7995 388.34148 L191.77022 396.22736 L188.91651 404.24192 L186.24105 412.37867 L183.74653 420.63112 L181.43562 428.99278 L179.311 437.45718 L177.37536 446.01781 L175.63137 454.66819 L174.08171 463.40183 L172.72908 472.21225 L171.57613 481.09296 L170.62557 490.03746 L169.88006 499.03928 L169.34229 508.09191 L169.01493 517.18888 L168.90068 526.3237 L169.0022 535.48988 L169.32218 544.68093 L169.86331 553.89036 L170.62825 563.11168 L171.61969 572.33841 L172.84032 581.56406 L174.2928 590.78214 L175.97983 599.98617 L177.90408 609.16965 L180.06824 618.32609 L182.47498 627.44901 L185.12698 636.53193 L188.02693 645.56835 L191.1775 654.55178 L194.58138 663.47574 L196.37914 667.91339 L196.37914 667.91339 L198.10005 671.99978 L201.6746 680.02271 L205.42228 687.84273 L209.33846 695.45612 L213.41854 702.85914 L217.65789 710.04806 L222.0519 717.01918 L226.59593 723.76874 L231.28539 730.29304 L236.11564 736.58834 L241.08207 742.65091 L246.18006 748.47704 L251.40499 754.06299 L256.75224 759.40504 L262.2172 764.49945 L267.79524 769.34251 L273.48174 773.93049 L279.27209 778.25966 L285.16167 782.32629 L291.14586 786.12666 L297.22004 789.65704 L303.37959 792.91371 L309.61989 795.89293 L315.93632 798.59098 L322.32428 801.00414 L328.77912 803.12868 L335.29625 804.96087 L341.87103 806.49699 L348.49886 807.7333 L355.1751 808.66609 L361.89515 809.29162 L368.65438 809.60618 L372.04724 809.64567" />
    <path d="M372.04724 242.71654 L372.04724 242.71654 L372.04724 242.71654 L372.04724 242.71654 L372.04724 242.71654 L368.56389 242.75965 L361.65987 243.10217 L354.84157 243.78097 L348.11155 244.78958 L341.47237 246.12151 L334.92659 247.77027 L328.47676 249.72938 L322.12544 251.99233 L315.8752 254.55265 L309.7286 257.40386 L303.68818 260.53945 L297.75651 263.95294 L291.93615 267.63785 L286.22966 271.58768 L280.6396 275.79595 L275.16852 280.25618 L269.81898 284.96186 L264.59355 289.90652 L259.49478 295.08366 L254.52523 300.48681 L249.68746 306.10946 L244.98402 311.94514 L240.41749 317.98735 L235.99041 324.2296 L231.70534 330.66542 L227.56485 337.2883 L223.57149 344.09177 L219.72782 351.06933 L216.0364 358.2145 L212.49979 365.52079 L209.12055 372.9817 L205.90123 380.59076 L202.8444 388.34148 L199.95261 396.22736 L197.22843 404.24192 L194.6744 412.37867 L192.2931 420.63112 L190.08708 428.99278 L188.05889 437.45718 L186.2111 446.01781 L184.54627 454.66819 L183.06695 463.40183 L181.77571 472.21225 L180.67509 481.09296 L179.76767 490.03746 L179.056 499.03928 L178.54263 508.09191 L178.23014 517.18888 L178.12107 526.3237 L178.21798 535.48988 L178.52344 544.68093 L179.04001 553.89036 L179.77023 563.11168 L180.71667 572.33841 L181.8819 581.56406 L183.26846 590.78214 L184.87892 599.98617 L186.71583 609.16965 L188.78176 618.32609 L191.07926 627.44901 L193.61089 636.53193 L196.37922 645.56835 L199.38679 654.55178 L202.63617 663.47574 L204.35234 667.91339 L204.35234 667.91339 L205.99514 671.99978 L209.40745 680.02271 L212.98503 687.84273 L216.72347 695.45612 L220.61836 702.85914 L224.6653 710.04806 L228.85987 717.01918 L233.19766 723.76874 L237.67427 730.29304 L242.28529 736.58834 L247.0263 742.65091 L251.8929 748.47704 L256.88069 754.06299 L261.98524 759.40504 L267.20215 764.49945 L272.52701 769.34251 L277.95542 773.93049 L283.48296 778.25966 L289.10522 782.32629 L294.8178 786.12666 L300.61628 789.65704 L306.49627 792.91371 L312.45333 795.89293 L318.48308 798.59098 L324.5811 801.00414 L330.74297 803.12868 L336.9643 804.96087 L343.24067 806.49699 L349.56767 807.7333 L355.94089 808.66609 L362.35593 809.29162 L368.80837 809.60618 L372.04724 809.64567" />
    <path d="M372.04724 242.71654 L372.04724 242.71654 L372.04724 242.71654 L372.04724 242.71654 L372.04724 242.71654 L368.73846 242.75965 L362.18044 243.10217 L355.70385 243.78097 L349.31111 244.78958 L343.00466 246.12151 L336.78692 247.77027 L330.66033 249.72938 L324.62732 251.99233 L318.69032 254.55265 L312.85175 257.40386 L307.11406 260.53945 L301.47966 263.95294 L295.951 267.63785 L290.53049 271.58768 L285.22058 275.79595 L280.02369 280.25618 L274.94225 284.96186 L269.97869 289.90652 L265.13545 295.08366 L260.41496 300.48681 L255.81963 306.10946 L251.35192 311.94514 L247.01424 317.98735 L242.80902 324.2296 L238.73871 330.66542 L234.80572 337.2883 L231.01249 344.09177 L227.36145 351.06933 L223.85503 358.2145 L220.49566 365.52079 L217.28577 372.9817 L214.22779 380.59076 L211.32416 388.34148 L208.5773 396.22736 L205.98964 404.24192 L203.56361 412.37867 L201.30165 420.63112 L199.20618 428.99278 L197.27964 437.45718 L195.52446 446.01781 L193.94306 454.66819 L192.53788 463.40183 L191.31134 472.21225 L190.26589 481.09296 L189.40394 490.03746 L188.72794 499.03928 L188.2403 508.09191 L187.94347 517.18888 L187.83986 526.3237 L187.93192 535.48988 L188.22207 544.68093 L188.71275 553.89036 L189.40637 563.11168 L190.30539 572.33841 L191.41221 581.56406 L192.72928 590.78214 L194.25903 599.98617 L196.00389 609.16965 L197.96628 618.32609 L200.14864 627.44901 L202.5534 636.53193 L205.18299 645.56835 L208.03983 654.55178 L211.12637 663.47574 L212.75653 667.91339 L212.75653 667.91339 L214.317 671.99978 L217.5583 680.02271 L220.95658 687.84273 L224.50767 695.45612 L228.20736 702.85914 L232.05148 710.04806 L236.03584 717.01918 L240.15624 723.76874 L244.4085 730.29304 L248.78843 736.58834 L253.29184 742.65091 L257.91455 748.47704 L262.65237 754.06299 L267.5011 759.40504 L272.45656 764.49945 L277.51456 769.34251 L282.67092 773.93049 L287.92144 778.25966 L293.26194 782.32629 L298.68823 786.12666 L304.19611 789.65704 L309.78141 792.91371 L315.43994 795.89293 L321.1675 798.59098 L326.95991 801.00414 L332.81297 803.12868 L338.72251 804.96087 L344.68434 806.49699 L350.69425 807.7333 L356.74808 808.66609 L362.84162 809.29162 L368.97069 809.60618 L372.04724 809.64567" />
    <path d="M372.04724 242.71654 L372.04724 242.71654 L372.04724 242.71654 L372.04724 242.71654 L372.04724 242.71654 L368.92198 242.75965 L362.72771 243.10217 L356.61035 243.78097 L350.57219 244.78958 L344.61553 246.12151 L338.74266 247.77027 L332.95589 249.72938 L327.2575 251.99233 L321.6498 254.55265 L316.13507 257.40386 L310.71562 260.53945 L305.39374 263.95294 L300.17173 267.63785 L295.05188 271.58768 L290.03648 275.79595 L285.12784 280.25618 L280.32825 284.96186 L275.64 289.90652 L271.06539 295.08366 L266.60672 300.48681 L262.26628 306.10946 L258.04637 311.94514 L253.94928 317.98735 L249.97731 324.2296 L246.13276 330.66542 L242.41792 337.2883 L238.83509 344.09177 L235.38655 351.06933 L232.07462 358.2145 L228.90158 365.52079 L225.86973 372.9817 L222.98136 380.59076 L220.23878 388.34148 L217.64427 396.22736 L215.20014 404.24192 L212.90868 412.37867 L210.77218 420.63112 L208.79294 428.99278 L206.97325 437.45718 L205.31542 446.01781 L203.82173 454.66819 L202.49449 463.40183 L201.33599 472.21225 L200.34852 481.09296 L199.53438 490.03746 L198.89587 499.03928 L198.43529 508.09191 L198.15491 517.18888 L198.05706 526.3237 L198.14401 535.48988 L198.41807 544.68093 L198.88153 553.89036 L199.53668 563.11168 L200.38583 572.33841 L201.43126 581.56406 L202.67528 590.78214 L204.12018 599.98617 L205.76826 609.16965 L207.62181 618.32609 L209.68312 627.44901 L211.9545 636.53193 L214.43823 645.56835 L217.13662 654.55178 L220.05196 663.47574 L221.59171 667.91339 L221.59171 667.91339 L223.06562 671.99978 L226.12714 680.02271 L229.33693 687.84273 L232.69106 695.45612 L236.18555 702.85914 L239.81645 710.04806 L243.57981 717.01918 L247.47167 723.76874 L251.48807 730.29304 L255.62507 736.58834 L259.8787 742.65091 L264.245 748.47704 L268.72003 754.06299 L273.29983 759.40504 L277.98043 764.49945 L282.75789 769.34251 L287.62824 773.93049 L292.58754 778.25966 L297.63182 782.32629 L302.75714 786.12666 L307.95953 789.65704 L313.23503 792.91371 L318.5797 795.89293 L323.98958 798.59098 L329.46071 801.00414 L334.98913 803.12868 L340.57089 804.96087 L346.20204 806.49699 L351.87861 807.7333 L357.59666 808.66609 L363.35222 809.29162 L369.14134 809.60618 L372.04724 809.64567" />
    <path d="M372.04724 242.71654 L372.04724 242.71654 L372.04724 242.71654 L372.04724 242.71654 L372.04724 242.71654 L369.11446 242.75965 L363.30168 243.10217 L357.56106 243.78097 L351.89478 244.78958 L346.30497 246.12151 L340.7938 247.77027 L335.36342 249.72938 L330.01598 251.99233 L324.75364 254.55265 L319.57856 257.40386 L314.49287 260.53945 L309.49875 263.95294 L304.59835 267.63785 L299.79382 271.58768 L295.08731 275.79595 L290.48097 280.25618 L285.97698 284.96186 L281.57746 289.90652 L277.28459 295.08366 L273.10052 300.48681 L269.0274 306.10946 L265.06738 311.94514 L261.22262 317.98735 L257.49528 324.2296 L253.8875 330.66542 L250.40145 337.2883 L247.03927 344.09177 L243.80312 351.06933 L240.69516 358.2145 L237.71754 365.52079 L233.50021 376.76812 L228.3534 392.26793 L223.76672 408.29542 L219.75742 424.7987 L216.34273 441.72587 L213.53989 459.02501 L211.36612 476.64422 L209.83866 494.53161 L208.97476 512.63526 L208.79164 530.90328 L209.11143 544.68093 L209.54634 553.89036 L210.16115 563.11168 L210.958 572.33841 L211.93905 581.56406 L213.10645 590.78214 L214.46237 599.98617 L216.00894 609.16965 L217.74833 618.32609 L219.68269 627.44901 L221.81418 636.53193 L224.14495 645.56835 L226.67716 654.55178 L229.41295 663.47574 L230.85786 667.91339 L230.85786 667.91339 L232.241 671.99978 L235.11397 680.02271 L238.12608 687.84273 L241.27363 695.45612 L244.55291 702.85914 L247.96019 710.04806 L251.49178 717.01918 L255.14395 723.76874 L258.91299 730.29304 L262.7952 736.58834 L266.78686 742.65091 L270.88426 748.47704 L275.08368 754.06299 L279.38142 759.40504 L283.77375 764.49945 L288.25698 769.34251 L292.82738 773.93049 L297.48125 778.25966 L302.21487 782.32629 L307.02453 786.12666 L311.90652 789.65704 L316.85712 792.91371 L321.87263 795.89293 L326.94932 798.59098 L332.0835 801.00414 L337.27144 803.12868 L342.50944 804.96087 L347.79378 806.49699 L353.12074 807.7333 L358.48663 808.66609 L363.88772 809.29162 L369.3203 809.60618 L372.04724 809.64567" />
    <path d="M372.04724 242.71654 L372.04724 242.71654 L372.04724 242.71654 L372.04724 242.71654 L372.04724 242.71654 L369.31589 242.75965 L363.90234 243.10217 L358.556 243.78097 L353.27889 244.78958 L348.073 246.12151 L342.94034 247.77027 L337.88293 249.72938 L332.90277 251.99233 L328.00185 254.55265 L323.1822 257.40386 L318.44581 260.53945 L313.7947 263.95294 L309.23086 267.63785 L304.75631 271.58768 L300.37305 275.79595 L296.08309 280.25618 L291.88844 284.96186 L287.79109 289.90652 L283.79306 295.08366 L279.89636 300.48681 L276.10299 306.10946 L272.41495 311.94514 L268.83426 317.98735 L265.36291 324.2296 L262.00292 330.66542 L258.7563 337.2883 L254.1033 347.55919 L248.3148 361.84791 L243.01587 376.76812 L238.22255 392.26793 L233.9509 408.29542 L230.21696 424.7987 L227.0368 441.72587 L224.42646 459.02501 L222.40199 476.64422 L220.97944 494.53161 L220.17487 512.63526 L220.00432 530.90328 L220.48386 549.28375 L221.62952 567.72478 L223.45736 586.17446 L225.28558 599.98617 L226.72593 609.16965 L228.34586 618.32609 L230.14736 627.44901 L232.13246 636.53193 L234.30315 645.56835 L236.66143 654.55178 L239.20933 663.47574 L240.555 667.91339 L240.555 667.91339 L241.84315 671.99978 L244.51879 680.02271 L247.32403 687.84273 L250.2554 695.45612 L253.30944 702.85914 L256.48271 710.04806 L259.77174 717.01918 L263.17307 723.76874 L266.68326 730.29304 L270.29883 736.58834 L274.01633 742.65091 L277.83231 748.47704 L281.74331 754.06299 L285.74587 759.40504 L289.83653 764.49945 L294.01185 769.34251 L298.26834 773.93049 L302.60258 778.25966 L307.01108 782.32629 L311.49041 786.12666 L316.03709 789.65704 L320.64768 792.91371 L325.31871 795.89293 L330.04673 798.59098 L334.82828 801.00414 L339.65991 803.12868 L344.53815 804.96087 L349.45955 806.49699 L354.42065 807.7333 L359.418 808.66609 L364.44813 809.29162 L369.50759 809.60618 L372.04724 809.64567" />
    <path d="M372.04724 242.71654 L372.04724 242.71654 L372.04724 242.71654 L372.04724 242.71654 L372.04724 242.71654 L369.52627 242.75965 L364.5297 243.10217 L359.59516 243.78097 L354.72451 244.78958 L349.9196 246.12151 L345.18229 247.77027 L340.51442 249.72938 L335.91785 251.99233 L331.39443 254.55265 L326.946 257.40386 L322.57444 260.53945 L318.28157 263.95294 L314.06926 267.63785 L309.93936 271.58768 L305.89372 275.79595 L301.93419 280.25618 L298.06263 284.96186 L294.28088 289.90652 L290.5908 295.08366 L286.99424 300.48681 L283.49304 306.10946 L280.08908 311.94514 L276.78418 317.98735 L273.58022 324.2296 L268.96756 333.95388 L263.18787 347.55919 L257.84523 361.84791 L252.95444 376.76812 L248.53033 392.26793 L244.5877 408.29542 L241.14137 424.7987 L238.20616 441.72587 L235.79687 459.02501 L233.92834 476.64422 L232.61536 494.53161 L231.87276 512.63526 L231.71535 530.90328 L232.15795 549.28375 L233.21537 567.72478 L234.90242 586.17446 L237.23392 604.58088 L240.22469 622.89215 L242.90933 636.53193 L244.91282 645.56835 L247.08946 654.55178 L249.4411 663.47574 L250.68313 667.91339 L250.68313 667.91339 L253.09168 676.03638 L256.93077 687.84273 L259.63635 695.45612 L262.45516 702.85914 L265.38401 710.04806 L268.4197 717.01918 L271.55905 723.76874 L274.79886 730.29304 L278.13595 736.58834 L281.56711 742.65091 L285.08917 748.47704 L288.69893 754.06299 L292.39319 759.40504 L296.16877 764.49945 L300.02248 769.34251 L303.95113 773.93049 L307.95152 778.25966 L312.02046 782.32629 L316.15477 786.12666 L320.35124 789.65704 L324.6067 792.91371 L328.91795 795.89293 L333.2818 798.59098 L337.69505 801.00414 L342.15452 803.12868 L346.65702 804.96087 L351.19935 806.49699 L355.77833 807.7333 L360.39076 808.66609 L365.03345 809.29162 L369.70321 809.60618 L372.04724 809.64567" />
    <path d="M372.04724 242.71654 L372.04724 242.71654 L372.04724 242.71654 L372.04724 242.71654 L372.04724 242.71654 L369.7456 242.75965 L365.18375 243.10217 L360.67853 243.78097 L356.23165 244.78958 L351.84479 246.12151 L347.51964 247.77027 L343.25789 249.72938 L339.06123 251.99233 L334.93137 254.55265 L330.86997 257.40386 L326.87874 260.53945 L322.95937 263.95294 L319.11355 267.63785 L315.34297 271.58768 L311.64931 275.79595 L308.03428 280.25618 L304.49955 284.96186 L301.04683 289.90652 L297.6778 295.08366 L294.39415 300.48681 L291.19757 306.10946 L288.08976 311.94514 L283.59818 321.08387 L277.93586 333.95388 L272.65903 347.55919 L267.78121 361.84791 L263.31594 376.76812 L259.27674 392.26793 L255.67713 408.29542 L252.53064 424.7987 L249.8508 441.72587 L247.65114 459.02501 L245.94517 476.64422 L244.74643 494.53161 L244.06844 512.63526 L243.92472 530.90328 L244.32881 549.28375 L245.29423 567.72478 L246.83451 586.17446 L248.96316 604.58088 L251.69372 622.89215 L255.03972 641.05636 L259.01467 659.0216 L261.24223 667.91339 L261.24223 667.91339 L263.44123 676.03638 L268.1683 691.67549 L273.3147 706.48059 L278.85713 720.42188 L283.25982 730.29304 L286.30656 736.58834 L289.43921 742.65091 L292.65483 748.47704 L295.95053 754.06299 L299.32338 759.40504 L302.77047 764.49945 L306.28889 769.34251 L309.87573 773.93049 L313.52807 778.25966 L317.243 782.32629 L321.01761 786.12666 L324.84898 789.65704 L328.7342 792.91371 L332.67035 795.89293 L336.65453 798.59098 L340.68382 801.00414 L344.7553 803.12868 L348.86606 804.96087 L353.01319 806.49699 L357.19378 807.7333 L361.40491 808.66609 L365.64367 809.29162 L369.90715 809.60618 L372.04724 809.64567" />
    <path d="M372.04724 242.71654 L372.04724 242.71654 L372.04724 242.71654 L372.04724 242.71654 L372.04724 242.71654 L369.97389 242.75965 L365.8645 243.10217 L361.80613 243.78097 L357.8003 244.78958 L353.84855 246.12151 L349.95238 247.77027 L346.11333 249.72938 L342.33292 251.99233 L338.61267 254.55265 L334.9541 257.40386 L331.35874 260.53945 L327.82811 263.95294 L324.36373 267.63785 L320.96713 271.58768 L317.63983 275.79595 L314.38334 280.25618 L311.19921 284.96186 L308.08894 289.90652 L303.56537 297.75739 L297.8067 309.00108 L292.37092 321.08387 L287.27021 333.95388 L282.51675 347.55919 L278.12274 361.84791 L274.10035 376.76812 L270.46178 392.26793 L267.21919 408.29542 L264.38479 424.7987 L261.97075 441.72587 L259.98925 459.02501 L258.45249 476.64422 L257.37264 494.53161 L256.7619 512.63526 L256.63244 530.90328 L256.99645 549.28375 L257.86611 567.72478 L259.25362 586.17446 L261.17114 604.58088 L263.63088 622.89215 L266.645 641.05636 L270.2257 659.0216 L272.23233 667.91339 L272.23233 667.91339 L274.21322 676.03638 L278.47144 691.67549 L283.1074 706.48059 L288.1001 720.42188 L293.42856 733.46955 L299.07177 745.59377 L303.49811 754.06299 L306.53643 759.40504 L309.64162 764.49945 L312.81107 769.34251 L316.04216 773.93049 L319.33224 778.25966 L322.67871 782.32629 L326.07894 786.12666 L329.5303 789.65704 L333.03016 792.91371 L336.57591 795.89293 L340.16492 798.59098 L343.79457 801.00414 L347.46222 803.12868 L351.16527 804.96087 L354.90107 806.49699 L358.66701 807.7333 L362.46046 808.66609 L366.27881 809.29162 L370.11941 809.60618 L372.04724 809.64567" />
    <path d="M372.04724 242.71654 L372.04724 242.71654 L372.04724 242.71654 L372.04724 242.71654 L372.04724 242.71654 L370.21113 242.75965 L366.57194 243.10217 L362.97794 243.78097 L359.43048 244.78958 L355.93089 246.12151 L352.48053 247.77027 L349.08076 249.72938 L345.73291 251.99233 L342.43834 254.55265 L339.19839 257.40386 L336.01442 260.53945 L332.88778 263.95294 L329.8198 267.63785 L326.81185 271.58768 L323.86526 275.79595 L320.98139 280.25618 L316.77614 287.40472 L311.40124 297.75739 L306.30149 309.00108 L301.48769 321.08387 L296.97061 333.95388 L292.76106 347.55919 L288.86982 361.84791 L285.30769 376.76812 L282.08544 392.26793 L279.21389 408.29542 L276.7038 424.7987 L274.56598 441.72587 L272.81121 459.02501 L271.45029 476.64422 L270.494 494.53161 L269.95314 512.63526 L269.8385 530.90328 L270.16085 549.28375 L270.93101 567.72478 L272.15975 586.17446 L273.85787 604.58088 L276.03615 622.89215 L278.70539 641.05636 L281.87638 659.0216 L283.6534 667.91339 L283.6534 667.91339 L285.40764 676.03638 L289.17862 691.67549 L293.28412 706.48059 L297.70555 720.42188 L302.42431 733.46955 L307.42181 745.59377 L312.67946 756.76473 L318.17866 766.95263 L322.4504 773.93049 L325.36403 778.25966 L328.32759 782.32629 L331.33875 786.12666 L334.39519 789.65704 L337.4946 792.91371 L340.63463 795.89293 L343.81298 798.59098 L347.02731 801.00414 L350.2753 803.12868 L353.55463 804.96087 L356.86298 806.49699 L360.19801 807.7333 L363.55741 808.66609 L366.93885 809.29162 L370.34 809.60618 L372.04724 809.64567" />
    <path d="M372.04724 242.71654 L372.04724 242.71654 L372.04724 242.71654 L372.04724 242.71654 L372.04724 242.71654 L370.45732 242.75965 L367.30609 243.10217 L364.19398 243.78097 L361.12216 244.78958 L358.09181 246.12151 L355.10409 247.77027 L352.16016 249.72938 L349.2612 251.99233 L346.40837 254.55265 L343.60285 257.40386 L340.84579 260.53945 L338.13837 263.95294 L335.48176 267.63785 L332.87712 271.58768 L329.07016 277.99498 L324.18702 287.40472 L319.5328 297.75739 L315.11684 309.00108 L310.94848 321.08387 L307.03707 333.95388 L303.39194 347.55919 L300.02245 361.84791 L296.93794 376.76812 L294.14774 392.26793 L291.66121 408.29542 L289.48768 424.7987 L287.6365 441.72587 L286.11702 459.02501 L284.93857 476.64422 L284.11051 494.53161 L283.64217 512.63526 L283.54289 530.90328 L283.82203 549.28375 L284.48892 567.72478 L285.55291 586.17446 L287.02334 604.58088 L288.90955 622.89215 L291.22089 641.05636 L293.96671 659.0216 L295.50546 667.91339 L295.50546 667.91339 L297.02449 676.03638 L300.28985 691.67549 L303.84487 706.48059 L307.67346 720.42188 L311.75952 733.46955 L316.08694 745.59377 L320.63964 756.76473 L325.40149 766.95263 L330.35642 776.12766 L334.18962 782.32629 L336.79704 786.12666 L339.44367 789.65704 L342.1275 792.91371 L344.84651 795.89293 L347.5987 798.59098 L350.38204 801.00414 L353.19454 803.12868 L356.03417 804.96087 L358.89892 806.49699 L361.78678 807.7333 L364.69575 808.66609 L367.62379 809.29162 L370.56891 809.60618 L372.04724 809.64567" />
    <path d="M372.04724 242.71654 L372.04724 242.71654 L372.04724 242.71654 L372.04724 242.71654 L372.04724 242.71654 L370.71246 242.75965 L368.06692 243.10217 L365.45423 243.78097 L362.87537 244.78958 L360.33131 246.12151 L357.82304 247.77027 L355.35154 249.72938 L352.91779 251.99233 L350.52277 254.55265 L348.16746 257.40386 L345.85285 260.53945 L343.5799 263.95294 L340.25076 269.58005 L335.96691 277.99498 L331.8674 287.40472 L327.96006 297.75739 L324.25275 309.00108 L320.75331 321.08387 L317.46958 333.95388 L314.40941 347.55919 L311.58063 361.84791 L308.99111 376.76812 L306.64867 392.26793 L304.56116 408.29542 L302.73643 424.7987 L301.18232 441.72587 L299.90668 459.02501 L298.91734 476.64422 L298.22216 494.53161 L297.82897 512.63526 L297.74563 530.90328 L297.97997 549.28375 L298.53984 567.72478 L299.43309 586.17446 L300.66755 604.58088 L302.25108 622.89215 L304.19151 641.05636 L306.49669 659.0216 L307.78851 667.91339 L307.78851 667.91339 L309.06377 676.03638 L311.80512 691.67549 L314.78965 706.48059 L318.00385 720.42188 L321.4342 733.46955 L325.06718 745.59377 L328.88927 756.76473 L332.88697 766.95263 L337.04675 776.12766 L341.3551 784.25999 L344.67573 789.65704 L346.92887 792.91371 L349.21155 795.89293 L351.52208 798.59098 L353.85877 801.00414 L356.21993 803.12868 L358.60387 804.96087 L361.0089 806.49699 L363.43333 807.7333 L365.87548 808.66609 L368.33365 809.29162 L370.80615 809.60618 L372.04724 809.64567" />
    <path d="M372.04724 242.71654 L372.04724 242.71654 L372.04724 242.71654 L372.04724 242.71654 L372.04724 242.71654 L370.97656 242.75965 L368.85446 243.10217 L366.7587 243.78097 L364.69008 244.78958 L362.64939 246.12151 L360.6374 247.77027 L358.6549 249.72938 L356.70268 251.99233 L354.78154 254.55265 L352.89224 257.40386 L350.11974 262.21186 L346.54191 269.58005 L343.10565 277.99498 L339.81725 287.40472 L336.68301 297.75739 L333.70922 309.00108 L330.90216 321.08387 L328.26814 333.95388 L325.81344 347.55919 L323.54436 361.84791 L321.46719 376.76812 L319.58822 392.26793 L317.91374 408.29542 L316.45005 424.7987 L315.20343 441.72587 L314.18018 459.02501 L313.38659 476.64422 L312.82895 494.53161 L312.51356 512.63526 L312.44671 530.90328 L312.63469 549.28375 L313.08378 567.72478 L313.80029 586.17446 L314.79051 604.58088 L316.06072 622.89215 L317.61723 641.05636 L319.46631 659.0216 L320.50254 667.91339 L320.50254 667.91339 L321.52548 676.03638 L323.72443 691.67549 L326.11846 706.48059 L328.6967 720.42188 L331.44833 733.46955 L334.3625 745.59377 L337.42837 756.76473 L340.6351 766.95263 L343.97184 776.12766 L347.42775 784.25999 L350.992 791.31982 L353.72975 795.89293 L355.58312 798.59098 L357.45748 801.00414 L359.35147 803.12868 L361.26373 804.96087 L363.19291 806.49699 L365.13765 807.7333 L367.0966 808.66609 L369.06841 809.29162 L371.05171 809.60618 L372.04724 809.64567" />
    <path d="M372.04724 242.71654 L372.04724 242.71654 L372.04724 242.71654 L372.04724 242.71654 L372.04724 242.71654 L371.24961 242.75965 L369.66869 243.10217 L368.1074 243.78097 L366.56632 244.78958 L365.04604 246.12151 L363.54715 247.77027 L362.07024 249.72938 L360.61588 251.99233 L358.47792 255.9423 L355.71173 262.21186 L353.04632 269.58005 L350.48638 277.99498 L348.0366 287.40472 L345.70165 297.75739 L343.48624 309.00108 L341.39505 321.08387 L339.43276 333.95388 L337.60406 347.55919 L335.91365 361.84791 L334.3662 376.76812 L332.9664 392.26793 L331.71895 408.29542 L330.62853 424.7987 L329.69983 441.72587 L328.93753 459.02501 L328.34632 476.64422 L327.9309 494.53161 L327.69594 512.63526 L327.64613 530.90328 L327.78617 549.28375 L328.12074 567.72478 L328.65452 586.17446 L329.39221 604.58088 L330.33849 622.89215 L331.49806 641.05636 L332.87558 659.0216 L333.64755 667.91339 L333.64755 667.91339 L334.40962 676.03638 L336.04779 691.67549 L337.83129 706.48059 L339.75203 720.42188 L341.80193 733.46955 L343.97293 745.59377 L346.25693 756.76473 L348.64587 766.95263 L351.13167 776.12766 L353.70625 784.25999 L356.36154 791.31982 L359.08945 797.27734 L361.88191 802.10272 L364.01376 804.96087 L365.45096 806.49699 L366.89975 807.7333 L368.35912 808.66609 L369.82807 809.29162 L371.30559 809.60618 L372.04724 809.64567" />
    <path d="M372.04724 242.71654 L372.04724 242.71654 L372.04724 242.71654 L372.04724 242.71654 L372.04724 242.71654 L371.53161 242.75965 L370.50961 243.10217 L369.50031 243.78097 L368.50407 244.78958 L367.03504 246.9067 L365.12562 250.82328 L363.27528 255.9423 L361.48706 262.21186 L359.76399 269.58005 L358.1091 277.99498 L356.52543 287.40472 L355.01599 297.75739 L352.89766 314.94083 L350.36136 340.66787 L348.17656 369.23232 L346.3675 400.21896 L344.95844 433.21254 L343.97362 467.79785 L343.43727 503.55965 L343.37363 540.0827 L343.80695 576.95178 L344.76148 613.75165 L346.26145 650.06709 L347.22355 667.91339 L347.22355 667.91339 L348.23362 683.95832 L350.53822 713.56108 L352.49499 733.46955 L353.89844 745.59377 L355.37495 756.76473 L356.9193 766.95263 L358.52626 776.12766 L360.19061 784.25999 L361.90713 791.31982 L363.67061 797.27734 L365.47581 802.10272 L367.31752 805.76617 L368.71962 807.7333 L369.66304 808.66609 L370.61265 809.29162 L371.5678 809.60618 L372.04724 809.64567" />
    <path d="M372.04724 242.71654 L372.04724 242.71654 L372.04724 242.71654 L372.04724 242.71654 L372.04724 242.71654 L371.82256 242.75965 L371.37723 243.10217 L370.71966 244.24446 L369.86322 246.9067 L369.0312 250.82328 L367.83187 258.93651 L366.33057 273.65992 L364.95075 292.46644 L363.70298 314.94083 L362.5978 340.66787 L361.64579 369.23232 L360.85751 400.21896 L360.24353 433.21254 L359.8144 467.79785 L359.58069 503.55965 L359.55296 540.0827 L359.74178 576.95178 L360.1577 613.75165 L360.8113 650.06709 L361.23053 667.91339 L361.23053 667.91339 L361.67066 683.95832 L362.67487 713.56108 L363.82916 739.64895 L365.11535 761.98343 L366.51522 780.32602 L368.01057 794.43823 L369.1838 802.10272 L369.98631 805.76617 L370.80245 808.23787 L371.42213 809.29162 L371.83833 809.60618 L372.04724 809.64567" />
    <path d="M372.04724 242.71654 L372.04724 242.71654 L372.04724 242.71654 L372.04724 242.71654 L372.04724 242.71654 L372.19724 242.88847 L372.49169 244.24446 L372.91874 248.71144 L373.45848 258.93651 L373.96109 273.65992 L374.63764 303.2711 L375.37674 354.62137 L375.90366 416.49083 L376.19011 485.55764 L376.20779 558.49994 L375.92842 631.99588 L375.66849 667.91339 L375.66849 667.91339 L375.35971 699.18416 L374.58836 751.30027 L373.89927 780.32602 L373.39865 794.43823 L372.87216 804.08155 L372.46398 808.23787 L372.18695 809.48801 L372.04724 809.64567" />
    <path d="M372.04724 242.71654 L372.04724 242.71654 L372.04724 242.71654 L372.04724 242.71654 L372.04724 242.71654 L372.43132 242.75965 L373.19257 243.10217 L373.94436 243.78097 L374.68642 244.78958 L375.78064 246.9067 L377.20289 250.82328 L378.58114 255.9423 L379.91311 262.21186 L381.19656 269.58005 L382.42922 277.99498 L384.17805 292.46644 L386.31101 314.94083 L388.20021 340.66787 L389.82758 369.23232 L391.17507 400.21896 L392.22463 433.21254 L392.95818 467.79785 L393.35769 503.55965 L393.40509 540.0827 L393.08233 576.95178 L392.37134 613.75165 L391.25407 650.06709 L390.53744 667.91339 L390.53744 667.91339 L389.78507 683.95832 L388.06847 713.56108 L386.09531 739.64895 L383.89669 761.98343 L382.1185 776.12766 L380.87879 784.25999 L379.60022 791.31982 L378.28667 797.27734 L376.94205 802.10272 L375.57023 805.76617 L374.52586 807.7333 L373.82315 808.66609 L373.11582 809.29162 L372.40436 809.60618 L372.04724 809.64567" />
    <path d="M372.04724 242.71654 L372.04724 242.71654 L372.04724 242.71654 L372.04724 242.71654 L372.04724 242.71654 L372.74913 242.75965 L374.14028 243.10217 L375.51415 243.78097 L376.87023 244.78958 L378.20801 246.12151 L379.52697 247.77027 L381.469 250.82328 L383.98768 255.9423 L386.42182 262.21186 L388.76726 269.58005 L391.0199 277.99498 L393.17561 287.40472 L395.23027 297.75739 L397.17974 309.00108 L399.0199 321.08387 L400.74663 333.95388 L402.35581 347.55919 L403.8433 361.84791 L405.20499 376.76812 L407.00262 400.21896 L408.92064 433.21254 L410.26119 467.79785 L410.99127 503.55965 L411.0779 540.0827 L410.70074 567.72478 L410.23103 586.17446 L409.58189 604.58088 L408.7492 622.89215 L407.72884 641.05636 L406.51667 659.0216 L405.83737 667.91339 L405.83737 667.91339 L405.16678 676.03638 L403.72526 691.67549 L402.15586 706.48059 L400.46569 720.42188 L398.66186 733.46955 L396.75147 745.59377 L394.74164 756.76473 L392.63947 766.95263 L390.45207 776.12766 L388.18655 784.25999 L385.85001 791.31982 L383.44956 797.27734 L380.99231 802.10272 L379.11638 804.96087 L377.8517 806.49699 L376.57683 807.7333 L375.29264 808.66609 L374.00002 809.29162 L372.69987 809.60618 L372.04724 809.64567" />
    <path d="M372.04724 242.71654 L372.04724 242.71654 L372.04724 242.71654 L372.04724 242.71654 L372.04724 242.71654 L373.07589 242.75965 L375.11468 243.10217 L377.12816 243.78097 L379.11556 244.78958 L381.07614 246.12151 L383.00914 247.77027 L384.9138 249.72938 L386.78937 251.99233 L388.6351 254.55265 L390.45022 257.40386 L393.11386 262.21186 L396.55123 269.58005 L399.85258 277.99498 L403.01188 287.40472 L406.02307 297.75739 L408.88011 309.00108 L411.57696 321.08387 L414.10757 333.95388 L416.46589 347.55919 L418.64589 361.84791 L420.64151 376.76812 L422.44671 392.26793 L424.05545 408.29542 L425.46168 424.7987 L426.65936 441.72587 L427.64243 459.02501 L428.40486 476.64422 L428.94061 494.53161 L429.24361 512.63526 L429.30784 530.90328 L429.12725 549.28375 L428.69578 567.72478 L428.0074 586.17446 L427.05606 604.58088 L425.83572 622.89215 L424.34032 641.05636 L422.56383 659.0216 L421.56829 667.91339 L421.56829 667.91339 L420.58551 676.03638 L418.47289 691.67549 L416.17286 706.48059 L413.69583 720.42188 L411.05223 733.46955 L408.25247 745.59377 L405.30697 756.76473 L402.22614 766.95263 L399.0204 776.12766 L395.70017 784.25999 L392.27586 791.31982 L388.75789 797.27734 L386.06421 801.00414 L384.24458 803.12868 L382.40739 804.96087 L380.55395 806.49699 L378.68556 807.7333 L376.80352 808.66609 L374.90913 809.29162 L373.0037 809.60618 L372.04724 809.64567" />
    <path d="M372.04724 242.71654 L372.04724 242.71654 L372.04724 242.71654 L372.04724 242.71654 L372.04724 242.71654 L373.41161 242.75965 L376.11578 243.10217 L378.78638 243.78097 L381.42241 244.78958 L384.02285 246.12151 L386.58671 247.77027 L389.11299 249.72938 L391.60068 251.99233 L394.04878 254.55265 L396.45629 257.40386 L398.82221 260.53945 L401.14553 263.95294 L404.54846 269.58005 L408.92725 277.99498 L413.11763 287.40472 L417.11156 297.75739 L420.90104 309.00108 L424.47804 321.08387 L427.83455 333.95388 L430.96255 347.55919 L433.85402 361.84791 L436.50094 376.76812 L438.8953 392.26793 L441.02907 408.29542 L442.89424 424.7987 L444.4828 441.72587 L445.78671 459.02501 L446.79798 476.64422 L447.50857 494.53161 L447.91047 512.63526 L447.99566 530.90328 L447.75612 549.28375 L447.18384 567.72478 L446.2708 586.17446 L445.00897 604.58088 L443.39035 622.89215 L441.40692 641.05636 L439.05064 659.0216 L437.73019 667.91339 L437.73019 667.91339 L436.42667 676.03638 L433.62456 691.67549 L430.57388 706.48059 L427.28844 720.42188 L423.78207 733.46955 L420.06856 745.59377 L416.16176 756.76473 L412.07545 766.95263 L407.82348 776.12766 L403.41964 784.25999 L400.02541 789.65704 L397.72233 792.91371 L395.38906 795.89293 L393.02732 798.59098 L390.63884 801.00414 L388.22535 803.12868 L385.78858 804.96087 L383.33024 806.49699 L380.85207 807.7333 L378.3558 808.66609 L375.84315 809.29162 L373.31585 809.60618 L372.04724 809.64567" />
    <path d="M372.04724 242.71654 L372.04724 242.71654 L372.04724 242.71654 L372.04724 242.71654 L372.04724 242.71654 L373.75628 242.75965 L377.14358 243.10217 L380.48883 243.78097 L383.79077 244.78958 L387.04814 246.12151 L390.25968 247.77027 L393.42415 249.72938 L396.54028 251.99233 L399.60683 254.55265 L402.62252 257.40386 L405.58612 260.53945 L408.49637 263.95294 L411.352 267.63785 L414.15176 271.58768 L416.8944 275.79595 L419.57867 280.25618 L423.49286 287.40472 L428.49575 297.75739 L433.24253 309.00108 L437.72316 321.08387 L441.92759 333.95388 L445.84579 347.55919 L449.4677 361.84791 L452.78329 376.76812 L455.78251 392.26793 L458.45532 408.29542 L460.79168 424.7987 L462.78153 441.72587 L464.41485 459.02501 L465.68157 476.64422 L466.57167 494.53161 L467.0751 512.63526 L467.18181 530.90328 L466.88177 549.28375 L466.16491 567.72478 L465.02122 586.17446 L463.44063 604.58088 L461.41311 622.89215 L458.92862 641.05636 L455.9771 659.0216 L454.32308 667.91339 L454.32308 667.91339 L452.69026 676.03638 L449.18028 691.67549 L445.35893 706.48059 L441.24352 720.42188 L436.85136 733.46955 L432.19975 745.59377 L427.306 756.76473 L422.18742 766.95263 L418.21134 773.93049 L415.49937 778.25966 L412.74093 782.32629 L409.93818 786.12666 L407.09328 789.65704 L404.2084 792.91371 L401.28569 795.89293 L398.32733 798.59098 L395.33547 801.00414 L392.31228 803.12868 L389.25992 804.96087 L386.18056 806.49699 L383.07636 807.7333 L379.94947 808.66609 L376.80208 809.29162 L373.63633 809.60618 L372.04724 809.64567" />
  </g>
</svg>